<mxfile host="65bd71144e">
    <diagram id="JeN3XUHXLwPGz5JMCtcu" name="Страница 1">
        <mxGraphModel dx="803" dy="605" grid="1" gridSize="10" guides="1" tooltips="1" connect="1" arrows="1" fold="1" page="1" pageScale="1" pageWidth="1654" pageHeight="2336" math="0" shadow="0">
            <root>
                <mxCell id="0"/>
                <mxCell id="1" parent="0"/>
                <mxCell id="19" style="edgeStyle=orthogonalEdgeStyle;rounded=0;orthogonalLoop=1;jettySize=auto;html=1;exitX=0.5;exitY=1;exitDx=0;exitDy=0;entryX=0.5;entryY=0;entryDx=0;entryDy=0;endArrow=none;endFill=0;" parent="1" source="7" target="10" edge="1">
                    <mxGeometry relative="1" as="geometry"/>
                </mxCell>
                <mxCell id="7" value="Цикл i от 0 до n" style="shape=loopLimit;whiteSpace=wrap;html=1;direction=east" parent="1" vertex="1">
                    <mxGeometry x="670" y="220" width="200" height="60" as="geometry"/>
                </mxCell>
                <mxCell id="20" style="edgeStyle=orthogonalEdgeStyle;rounded=0;orthogonalLoop=1;jettySize=auto;html=1;exitX=0.5;exitY=1;exitDx=0;exitDy=0;entryX=0.5;entryY=0;entryDx=0;entryDy=0;endArrow=none;endFill=0;" parent="1" source="10" target="11" edge="1">
                    <mxGeometry relative="1" as="geometry"/>
                </mxCell>
                <mxCell id="10" value="Цикл j от 0 до m" style="shape=loopLimit;whiteSpace=wrap;html=1;direction=east" parent="1" vertex="1">
                    <mxGeometry x="670" y="300" width="200" height="60" as="geometry"/>
                </mxCell>
                <mxCell id="47" style="edgeStyle=orthogonalEdgeStyle;rounded=0;orthogonalLoop=1;jettySize=auto;html=1;exitX=0.5;exitY=1;exitDx=0;exitDy=0;entryX=0.5;entryY=0;entryDx=0;entryDy=0;endArrow=none;endFill=0;" parent="1" source="11" target="43" edge="1">
                    <mxGeometry relative="1" as="geometry"/>
                </mxCell>
                <mxCell id="11" value="C[i][j] -= (a_tmp[i] + b_tmp[j])" style="html=1;dashed=0;whitespace=wrap;" parent="1" vertex="1">
                    <mxGeometry x="670" y="380" width="200" height="60" as="geometry"/>
                </mxCell>
                <mxCell id="23" style="edgeStyle=orthogonalEdgeStyle;rounded=0;orthogonalLoop=1;jettySize=auto;html=1;exitX=0.5;exitY=0;exitDx=0;exitDy=0;entryX=0.5;entryY=1;entryDx=0;entryDy=0;endArrow=none;endFill=0;" parent="1" source="14" target="16" edge="1">
                    <mxGeometry relative="1" as="geometry"/>
                </mxCell>
                <mxCell id="14" value="j += 1" style="shape=loopLimit;whiteSpace=wrap;html=1;strokeWidth=1;direction=west;" parent="1" vertex="1">
                    <mxGeometry x="670" y="940" width="200" height="60" as="geometry"/>
                </mxCell>
                <mxCell id="25" style="edgeStyle=orthogonalEdgeStyle;rounded=0;orthogonalLoop=1;jettySize=auto;html=1;exitX=0.5;exitY=0;exitDx=0;exitDy=0;entryX=0.5;entryY=0;entryDx=0;entryDy=0;endArrow=none;endFill=0;" parent="1" source="16" edge="1">
                    <mxGeometry relative="1" as="geometry">
                        <mxPoint x="770" y="1100" as="targetPoint"/>
                    </mxGeometry>
                </mxCell>
                <mxCell id="16" value="i += 1" style="shape=loopLimit;whiteSpace=wrap;html=1;strokeWidth=1;direction=west;" parent="1" vertex="1">
                    <mxGeometry x="670" y="1020" width="200" height="60" as="geometry"/>
                </mxCell>
                <mxCell id="58" style="edgeStyle=orthogonalEdgeStyle;rounded=0;orthogonalLoop=1;jettySize=auto;html=1;exitX=0.5;exitY=1;exitDx=0;exitDy=0;entryX=0.5;entryY=0;entryDx=0;entryDy=0;endArrow=none;endFill=0;" edge="1" parent="1" source="40" target="57">
                    <mxGeometry relative="1" as="geometry"/>
                </mxCell>
                <mxCell id="40" value="Б" style="shape=ellipse;html=1;dashed=0;whitespace=wrap;aspect=fixed;perimeter=ellipsePerimeter;" parent="1" vertex="1">
                    <mxGeometry x="740" y="60" width="60" height="60" as="geometry"/>
                </mxCell>
                <mxCell id="48" style="edgeStyle=orthogonalEdgeStyle;rounded=0;orthogonalLoop=1;jettySize=auto;html=1;exitX=0.5;exitY=1;exitDx=0;exitDy=0;entryX=0.5;entryY=0;entryDx=0;entryDy=0;endArrow=none;endFill=0;" parent="1" source="43" target="44" edge="1">
                    <mxGeometry relative="1" as="geometry"/>
                </mxCell>
                <mxCell id="43" value="Цикл k от 1 до t с шагом 2" style="shape=loopLimit;whiteSpace=wrap;html=1;direction=east" parent="1" vertex="1">
                    <mxGeometry x="670" y="460" width="200" height="60" as="geometry"/>
                </mxCell>
                <mxCell id="61" style="edgeStyle=orthogonalEdgeStyle;rounded=0;orthogonalLoop=1;jettySize=auto;html=1;exitX=0.5;exitY=1;exitDx=0;exitDy=0;entryX=0.5;entryY=0;entryDx=0;entryDy=0;endArrow=none;endFill=0;" edge="1" parent="1" source="44" target="60">
                    <mxGeometry relative="1" as="geometry"/>
                </mxCell>
                <mxCell id="44" value="C[i][j] += (A[i][k - 1] + &lt;br&gt;+ B[k][j] * A[i][k] + B[k - 1][j])" style="html=1;dashed=0;whitespace=wrap;" parent="1" vertex="1">
                    <mxGeometry x="670" y="540" width="200" height="60" as="geometry"/>
                </mxCell>
                <mxCell id="51" style="edgeStyle=orthogonalEdgeStyle;rounded=0;orthogonalLoop=1;jettySize=auto;html=1;exitX=0.5;exitY=0;exitDx=0;exitDy=0;entryX=0.5;entryY=1;entryDx=0;entryDy=0;endArrow=none;endFill=0;" parent="1" source="45" target="14" edge="1">
                    <mxGeometry relative="1" as="geometry"/>
                </mxCell>
                <mxCell id="45" value="k += 2" style="shape=loopLimit;whiteSpace=wrap;html=1;strokeWidth=1;direction=west;" parent="1" vertex="1">
                    <mxGeometry x="670" y="860" width="200" height="60" as="geometry"/>
                </mxCell>
                <mxCell id="59" style="edgeStyle=orthogonalEdgeStyle;rounded=0;orthogonalLoop=1;jettySize=auto;html=1;exitX=0.5;exitY=1;exitDx=0;exitDy=0;entryX=0.5;entryY=0;entryDx=0;entryDy=0;endArrow=none;endFill=0;" edge="1" parent="1" source="57" target="7">
                    <mxGeometry relative="1" as="geometry"/>
                </mxCell>
                <mxCell id="57" value="flag = остаток от деления&amp;nbsp;&lt;br&gt;t на 2" style="html=1;dashed=0;whitespace=wrap;" vertex="1" parent="1">
                    <mxGeometry x="670" y="140" width="200" height="60" as="geometry"/>
                </mxCell>
                <mxCell id="63" style="edgeStyle=orthogonalEdgeStyle;rounded=0;orthogonalLoop=1;jettySize=auto;html=1;exitX=1;exitY=0.5;exitDx=0;exitDy=0;entryX=0.5;entryY=0;entryDx=0;entryDy=0;endArrow=classic;endFill=1;" edge="1" parent="1" source="60" target="62">
                    <mxGeometry relative="1" as="geometry"/>
                </mxCell>
                <mxCell id="65" style="edgeStyle=orthogonalEdgeStyle;rounded=0;orthogonalLoop=1;jettySize=auto;html=1;exitX=0;exitY=0.5;exitDx=0;exitDy=0;entryX=0.5;entryY=1;entryDx=0;entryDy=0;endArrow=none;endFill=0;" edge="1" parent="1" source="60" target="45">
                    <mxGeometry relative="1" as="geometry">
                        <Array as="points">
                            <mxPoint x="630" y="650"/>
                            <mxPoint x="630" y="830"/>
                            <mxPoint x="770" y="830"/>
                        </Array>
                    </mxGeometry>
                </mxCell>
                <mxCell id="60" value="flag == 1" style="shape=rhombus;html=1;dashed=0;whitespace=wrap;perimeter=rhombusPerimeter;" vertex="1" parent="1">
                    <mxGeometry x="670" y="620" width="200" height="60" as="geometry"/>
                </mxCell>
                <mxCell id="66" style="edgeStyle=orthogonalEdgeStyle;rounded=0;orthogonalLoop=1;jettySize=auto;html=1;exitX=0.5;exitY=1;exitDx=0;exitDy=0;entryX=0.5;entryY=1;entryDx=0;entryDy=0;endArrow=classic;endFill=1;" edge="1" parent="1" source="62" target="45">
                    <mxGeometry relative="1" as="geometry">
                        <Array as="points">
                            <mxPoint x="890" y="830"/>
                            <mxPoint x="770" y="830"/>
                        </Array>
                    </mxGeometry>
                </mxCell>
                <mxCell id="62" value="C[i][j] += A[i][t - 1] * B[t - 1][j]" style="html=1;dashed=0;whitespace=wrap;" vertex="1" parent="1">
                    <mxGeometry x="790" y="730" width="200" height="60" as="geometry"/>
                </mxCell>
                <mxCell id="64" value="Да" style="text;html=1;align=center;verticalAlign=middle;resizable=0;points=[];autosize=1;strokeColor=none;" vertex="1" parent="1">
                    <mxGeometry x="860" y="620" width="30" height="20" as="geometry"/>
                </mxCell>
                <mxCell id="68" value="Конец" style="html=1;dashed=0;whitespace=wrap;shape=mxgraph.dfd.start" vertex="1" parent="1">
                    <mxGeometry x="670" y="1100" width="200" height="60" as="geometry"/>
                </mxCell>
            </root>
        </mxGraphModel>
    </diagram>
</mxfile>